<svg xmlns="http://www.w3.org/2000/svg" viewBox="0 0 1440 320">
  <path fill="#5000ca" fill-opacity="1" d="M0,128L18.5,117.3C36.9,107,74,85,111,101.3C147.7,117,185,171,222,176C258.5,181,295,139,332,122.7C369.2,107,406,117,443,138.7C480,160,517,192,554,218.7C590.8,245,628,267,665,261.3C701.5,256,738,224,775,181.3C812.3,139,849,85,886,58.7C923.1,32,960,32,997,69.3C1033.8,107,1071,181,1108,224C1144.6,267,1182,277,1218,266.7C1255.4,256,1292,224,1329,186.7C1366.2,149,1403,107,1422,85.3L1440,64L1440,320L1421.5,320C1403.1,320,1366,320,1329,320C1292.3,320,1255,320,1218,320C1181.5,320,1145,320,1108,320C1070.8,320,1034,320,997,320C960,320,923,320,886,320C849.2,320,812,320,775,320C738.5,320,702,320,665,320C627.7,320,591,320,554,320C516.9,320,480,320,443,320C406.2,320,369,320,332,320C295.4,320,258,320,222,320C184.6,320,148,320,111,320C73.8,320,37,320,18,320L0,320Z"></path>
</svg>